<svg width="20" height="19" viewBox="0 0 20 19" fill="none" xmlns="http://www.w3.org/2000/svg">
<path d="M2 18C1.45 18 0.979167 17.8042 0.5875 17.4125C0.195833 17.0208 0 16.55 0 16V2C0 1.45 0.195833 0.979167 0.5875 0.5875C0.979167 0.195833 1.45 0 2 0H16C16.55 0 17.0208 0.195833 17.4125 0.5875C17.8042 0.979167 18 1.45 18 2V9C18 9.28333 17.9042 9.52083 17.7125 9.7125C17.5208 9.90417 17.2833 10 17 10C16.7167 10 16.4792 9.90417 16.2875 9.7125C16.0958 9.52083 16 9.28333 16 9V2H2V16H8C8.28333 16 8.52083 16.0958 8.7125 16.2875C8.90417 16.4792 9 16.7167 9 17C9 17.2833 8.90417 17.5208 8.7125 17.7125C8.52083 17.9042 8.28333 18 8 18H2ZM14.35 16.175L17.875 12.625C18.075 12.425 18.3125 12.325 18.5875 12.325C18.8625 12.325 19.1 12.425 19.3 12.625C19.5 12.825 19.6 13.0625 19.6 13.3375C19.6 13.6125 19.5 13.85 19.3 14.05L15.05 18.3C14.85 18.5 14.6125 18.6 14.3375 18.6C14.0625 18.6 13.825 18.5 13.625 18.3L11.5 16.175C11.3167 15.975 11.225 15.7375 11.225 15.4625C11.225 15.1875 11.325 14.95 11.525 14.75C11.725 14.55 11.9583 14.45 12.225 14.45C12.4917 14.45 12.725 14.55 12.925 14.75L14.35 16.175ZM5 10C5.28333 10 5.52083 9.90417 5.7125 9.7125C5.90417 9.52083 6 9.28333 6 9C6 8.71667 5.90417 8.47917 5.7125 8.2875C5.52083 8.09583 5.28333 8 5 8C4.71667 8 4.47917 8.09583 4.2875 8.2875C4.09583 8.47917 4 8.71667 4 9C4 9.28333 4.09583 9.52083 4.2875 9.7125C4.47917 9.90417 4.71667 10 5 10ZM5 6C5.28333 6 5.52083 5.90417 5.7125 5.7125C5.90417 5.52083 6 5.28333 6 5C6 4.71667 5.90417 4.47917 5.7125 4.2875C5.52083 4.09583 5.28333 4 5 4C4.71667 4 4.47917 4.09583 4.2875 4.2875C4.09583 4.47917 4 4.71667 4 5C4 5.28333 4.09583 5.52083 4.2875 5.7125C4.47917 5.90417 4.71667 6 5 6ZM13 10C13.2833 10 13.5208 9.90417 13.7125 9.7125C13.9042 9.52083 14 9.28333 14 9C14 8.71667 13.9042 8.47917 13.7125 8.2875C13.5208 8.09583 13.2833 8 13 8H9C8.71667 8 8.47917 8.09583 8.2875 8.2875C8.09583 8.47917 8 8.71667 8 9C8 9.28333 8.09583 9.52083 8.2875 9.7125C8.47917 9.90417 8.71667 10 9 10H13ZM13 6C13.2833 6 13.5208 5.90417 13.7125 5.7125C13.9042 5.52083 14 5.28333 14 5C14 4.71667 13.9042 4.47917 13.7125 4.2875C13.5208 4.09583 13.2833 4 13 4H9C8.71667 4 8.47917 4.09583 8.2875 4.2875C8.09583 4.47917 8 4.71667 8 5C8 5.28333 8.09583 5.52083 8.2875 5.7125C8.47917 5.90417 8.71667 6 9 6H13Z" fill="#474747"/>
</svg>
