<svg width="22" height="16" viewBox="0 0 22 16" fill="none" xmlns="http://www.w3.org/2000/svg">
<path d="M16.55 5.175L20.075 1.625C20.275 1.425 20.5125 1.325 20.7875 1.325C21.0625 1.325 21.3 1.425 21.5 1.625C21.7 1.825 21.8 2.0625 21.8 2.3375C21.8 2.6125 21.7 2.85 21.5 3.05L17.25 7.3C17.05 7.5 16.8167 7.6 16.55 7.6C16.2833 7.6 16.05 7.5 15.85 7.3L13.725 5.175C13.525 4.975 13.425 4.7375 13.425 4.4625C13.425 4.1875 13.525 3.95 13.725 3.75C13.925 3.55 14.1583 3.45 14.425 3.45C14.6917 3.45 14.925 3.55 15.125 3.75L16.55 5.175ZM8 8C6.9 8 5.95833 7.60833 5.175 6.825C4.39167 6.04167 4 5.1 4 4C4 2.9 4.39167 1.95833 5.175 1.175C5.95833 0.391667 6.9 0 8 0C9.1 0 10.0417 0.391667 10.825 1.175C11.6083 1.95833 12 2.9 12 4C12 5.1 11.6083 6.04167 10.825 6.825C10.0417 7.60833 9.1 8 8 8ZM0 14V13.2C0 12.6333 0.145833 12.1125 0.4375 11.6375C0.729167 11.1625 1.11667 10.8 1.6 10.55C2.63333 10.0333 3.68333 9.64583 4.75 9.3875C5.81667 9.12917 6.9 9 8 9C9.1 9 10.1833 9.12917 11.25 9.3875C12.3167 9.64583 13.3667 10.0333 14.4 10.55C14.8833 10.8 15.2708 11.1625 15.5625 11.6375C15.8542 12.1125 16 12.6333 16 13.2V14C16 14.55 15.8042 15.0208 15.4125 15.4125C15.0208 15.8042 14.55 16 14 16H2C1.45 16 0.979167 15.8042 0.5875 15.4125C0.195833 15.0208 0 14.55 0 14ZM2 14H14V13.2C14 13.0167 13.9542 12.85 13.8625 12.7C13.7708 12.55 13.65 12.4333 13.5 12.35C12.6 11.9 11.6917 11.5625 10.775 11.3375C9.85833 11.1125 8.93333 11 8 11C7.06667 11 6.14167 11.1125 5.225 11.3375C4.30833 11.5625 3.4 11.9 2.5 12.35C2.35 12.4333 2.22917 12.55 2.1375 12.7C2.04583 12.85 2 13.0167 2 13.2V14ZM8 6C8.55 6 9.02083 5.80417 9.4125 5.4125C9.80417 5.02083 10 4.55 10 4C10 3.45 9.80417 2.97917 9.4125 2.5875C9.02083 2.19583 8.55 2 8 2C7.45 2 6.97917 2.19583 6.5875 2.5875C6.19583 2.97917 6 3.45 6 4C6 4.55 6.19583 5.02083 6.5875 5.4125C6.97917 5.80417 7.45 6 8 6Z" fill="#474747"/>
</svg>
